<mxfile host="app.diagrams.net" modified="2024-05-10T20:05:23.380Z" agent="Mozilla/5.0 (Windows NT 10.0; Win64; x64) AppleWebKit/537.36 (KHTML, like Gecko) Chrome/124.0.0.0 Safari/537.36" etag="ejL0nr_8igTJNQVF4lTe" version="24.3.0" type="device">
  <diagram name="Page-1" id="Od-_a7_Udu2JZBpp4S93">
    <mxGraphModel dx="875" dy="435" grid="1" gridSize="10" guides="1" tooltips="1" connect="1" arrows="1" fold="1" page="1" pageScale="1" pageWidth="850" pageHeight="1100" math="0" shadow="0">
      <root>
        <mxCell id="0" />
        <mxCell id="1" parent="0" />
        <mxCell id="zyXUtbdKgDTWm1Kq7Wx1-1" value="" style="rounded=0;whiteSpace=wrap;html=1;" vertex="1" parent="1">
          <mxGeometry x="220" y="20" width="460" height="370" as="geometry" />
        </mxCell>
        <mxCell id="zyXUtbdKgDTWm1Kq7Wx1-2" value="User&lt;div&gt;(client)&lt;/div&gt;" style="shape=umlActor;verticalLabelPosition=bottom;verticalAlign=top;html=1;outlineConnect=0;" vertex="1" parent="1">
          <mxGeometry x="150" y="80" width="30" height="60" as="geometry" />
        </mxCell>
        <mxCell id="zyXUtbdKgDTWm1Kq7Wx1-4" value="Admin" style="shape=umlActor;verticalLabelPosition=bottom;verticalAlign=top;html=1;outlineConnect=0;" vertex="1" parent="1">
          <mxGeometry x="720" y="80" width="30" height="60" as="geometry" />
        </mxCell>
        <mxCell id="zyXUtbdKgDTWm1Kq7Wx1-5" value="Login" style="ellipse;whiteSpace=wrap;html=1;" vertex="1" parent="1">
          <mxGeometry x="430" y="30" width="90" height="40" as="geometry" />
        </mxCell>
        <mxCell id="zyXUtbdKgDTWm1Kq7Wx1-7" value="&lt;span style=&quot;font-size: 12pt; line-height: 107%; font-family: &amp;quot;Times New Roman&amp;quot;, serif;&quot; lang=&quot;EN-US&quot;&gt;Add a Product&lt;/span&gt;" style="ellipse;whiteSpace=wrap;html=1;" vertex="1" parent="1">
          <mxGeometry x="490" y="70" width="100" height="50" as="geometry" />
        </mxCell>
        <mxCell id="zyXUtbdKgDTWm1Kq7Wx1-8" value="&lt;span style=&quot;font-size: 12pt; line-height: 107%; font-family: &amp;quot;Times New Roman&amp;quot;, serif;&quot; lang=&quot;EN-US&quot;&gt;Add Quantity to a&lt;br/&gt;Product&lt;/span&gt;" style="ellipse;whiteSpace=wrap;html=1;" vertex="1" parent="1">
          <mxGeometry x="510" y="310" width="140" height="50" as="geometry" />
        </mxCell>
        <mxCell id="zyXUtbdKgDTWm1Kq7Wx1-10" value="&lt;p style=&quot;margin-bottom:0cm;margin-bottom:.0001pt;text-align:&lt;br/&gt;justify;line-height:115%;mso-layout-grid-align:none;text-autospace:none&quot; class=&quot;MsoNormal&quot;&gt;&lt;span style=&quot;font-size: 12pt; line-height: 115%; font-family: &amp;quot;Times New Roman&amp;quot;, serif;&quot; lang=&quot;EN-US&quot;&gt;Change Price of a&lt;br&gt;Product&lt;/span&gt;&lt;/p&gt;" style="ellipse;whiteSpace=wrap;html=1;" vertex="1" parent="1">
          <mxGeometry x="405" y="125" width="140" height="50" as="geometry" />
        </mxCell>
        <mxCell id="zyXUtbdKgDTWm1Kq7Wx1-11" value="&lt;p style=&quot;margin-bottom:0cm;margin-bottom:.0001pt;text-align:&lt;br/&gt;justify;line-height:115%;mso-layout-grid-align:none;text-autospace:none&quot; class=&quot;MsoNormal&quot;&gt;&lt;span style=&quot;font-size: 12pt; line-height: 115%; font-family: &amp;quot;Times New Roman&amp;quot;, serif;&quot; lang=&quot;EN-US&quot;&gt;View Sales Report&lt;/span&gt;&lt;/p&gt;" style="ellipse;whiteSpace=wrap;html=1;align=center;" vertex="1" parent="1">
          <mxGeometry x="550" y="120" width="100" height="60" as="geometry" />
        </mxCell>
        <mxCell id="zyXUtbdKgDTWm1Kq7Wx1-12" value="&lt;br&gt;&lt;br&gt;&lt;br&gt;&lt;p style=&quot;margin-bottom:0cm;margin-bottom:.0001pt;text-align:&lt;br/&gt;justify;line-height:115%;mso-layout-grid-align:none;text-autospace:none&quot; class=&quot;MsoNormal&quot;&gt;&lt;span style=&quot;font-size:12.0pt;line-height:115%;font-family:&amp;quot;Times New Roman&amp;quot;,serif;&lt;br/&gt;color:black;mso-themecolor:text1;mso-ansi-language:EN-US&quot; lang=&quot;EN-US&quot;&gt;Return Main Menu(log out)&lt;/span&gt;&lt;/p&gt;&lt;br&gt;&lt;br&gt;&lt;br&gt;&lt;div&gt;&lt;br&gt;&lt;/div&gt;" style="ellipse;whiteSpace=wrap;html=1;" vertex="1" parent="1">
          <mxGeometry x="500" y="250" width="150" height="50" as="geometry" />
        </mxCell>
        <mxCell id="zyXUtbdKgDTWm1Kq7Wx1-13" value="&lt;p style=&quot;text-align:justify;line-height:115%&quot; class=&quot;MsoNormal&quot;&gt;&lt;span style=&quot;font-size: 12pt; line-height: 115%; font-family: &amp;quot;Times New Roman&amp;quot;, serif;&quot; lang=&quot;EN-US&quot;&gt;View all products&lt;/span&gt;&lt;/p&gt;" style="ellipse;whiteSpace=wrap;html=1;" vertex="1" parent="1">
          <mxGeometry x="475" y="190" width="130" height="50" as="geometry" />
        </mxCell>
        <mxCell id="zyXUtbdKgDTWm1Kq7Wx1-15" value="" style="endArrow=classic;html=1;rounded=0;exitX=0;exitY=0.3333333333333333;exitDx=0;exitDy=0;exitPerimeter=0;entryX=1;entryY=0.5;entryDx=0;entryDy=0;" edge="1" parent="1" source="zyXUtbdKgDTWm1Kq7Wx1-4" target="zyXUtbdKgDTWm1Kq7Wx1-5">
          <mxGeometry width="50" height="50" relative="1" as="geometry">
            <mxPoint x="400" y="300" as="sourcePoint" />
            <mxPoint x="450" y="250" as="targetPoint" />
          </mxGeometry>
        </mxCell>
        <mxCell id="zyXUtbdKgDTWm1Kq7Wx1-17" value="" style="endArrow=classic;html=1;rounded=0;entryX=1;entryY=0.5;entryDx=0;entryDy=0;exitX=0;exitY=0.3333333333333333;exitDx=0;exitDy=0;exitPerimeter=0;" edge="1" parent="1" source="zyXUtbdKgDTWm1Kq7Wx1-4" target="zyXUtbdKgDTWm1Kq7Wx1-7">
          <mxGeometry width="50" height="50" relative="1" as="geometry">
            <mxPoint x="400" y="300" as="sourcePoint" />
            <mxPoint x="450" y="250" as="targetPoint" />
          </mxGeometry>
        </mxCell>
        <mxCell id="zyXUtbdKgDTWm1Kq7Wx1-18" value="" style="endArrow=classic;html=1;rounded=0;exitX=0;exitY=0.3333333333333333;exitDx=0;exitDy=0;exitPerimeter=0;entryX=0.74;entryY=0.04;entryDx=0;entryDy=0;entryPerimeter=0;" edge="1" parent="1" source="zyXUtbdKgDTWm1Kq7Wx1-4" target="zyXUtbdKgDTWm1Kq7Wx1-10">
          <mxGeometry width="50" height="50" relative="1" as="geometry">
            <mxPoint x="740" y="120" as="sourcePoint" />
            <mxPoint x="580" y="90" as="targetPoint" />
            <Array as="points">
              <mxPoint x="620" y="110" />
            </Array>
          </mxGeometry>
        </mxCell>
        <mxCell id="zyXUtbdKgDTWm1Kq7Wx1-19" value="" style="endArrow=classic;html=1;rounded=0;exitX=0;exitY=0.3333333333333333;exitDx=0;exitDy=0;exitPerimeter=0;entryX=1;entryY=0;entryDx=0;entryDy=0;" edge="1" parent="1" source="zyXUtbdKgDTWm1Kq7Wx1-4" target="zyXUtbdKgDTWm1Kq7Wx1-11">
          <mxGeometry width="50" height="50" relative="1" as="geometry">
            <mxPoint x="750" y="130" as="sourcePoint" />
            <mxPoint x="590" y="100" as="targetPoint" />
          </mxGeometry>
        </mxCell>
        <mxCell id="zyXUtbdKgDTWm1Kq7Wx1-20" value="" style="endArrow=classic;html=1;rounded=0;exitX=0;exitY=0.3333333333333333;exitDx=0;exitDy=0;exitPerimeter=0;entryX=1;entryY=0.5;entryDx=0;entryDy=0;" edge="1" parent="1" source="zyXUtbdKgDTWm1Kq7Wx1-4" target="zyXUtbdKgDTWm1Kq7Wx1-13">
          <mxGeometry width="50" height="50" relative="1" as="geometry">
            <mxPoint x="760" y="140" as="sourcePoint" />
            <mxPoint x="600" y="110" as="targetPoint" />
          </mxGeometry>
        </mxCell>
        <mxCell id="zyXUtbdKgDTWm1Kq7Wx1-21" value="" style="endArrow=classic;html=1;rounded=0;exitX=0;exitY=0.3333333333333333;exitDx=0;exitDy=0;exitPerimeter=0;entryX=0.994;entryY=0.316;entryDx=0;entryDy=0;entryPerimeter=0;" edge="1" parent="1" source="zyXUtbdKgDTWm1Kq7Wx1-4" target="zyXUtbdKgDTWm1Kq7Wx1-8">
          <mxGeometry width="50" height="50" relative="1" as="geometry">
            <mxPoint x="770" y="150" as="sourcePoint" />
            <mxPoint x="610" y="120" as="targetPoint" />
          </mxGeometry>
        </mxCell>
        <mxCell id="zyXUtbdKgDTWm1Kq7Wx1-22" value="" style="endArrow=classic;html=1;rounded=0;exitX=0;exitY=0.3333333333333333;exitDx=0;exitDy=0;exitPerimeter=0;entryX=0.738;entryY=0.1;entryDx=0;entryDy=0;entryPerimeter=0;" edge="1" parent="1" source="zyXUtbdKgDTWm1Kq7Wx1-4" target="zyXUtbdKgDTWm1Kq7Wx1-12">
          <mxGeometry width="50" height="50" relative="1" as="geometry">
            <mxPoint x="780" y="160" as="sourcePoint" />
            <mxPoint x="620" y="130" as="targetPoint" />
          </mxGeometry>
        </mxCell>
        <mxCell id="zyXUtbdKgDTWm1Kq7Wx1-24" value="&lt;span style=&quot;font-size: 12pt; line-height: 107%; font-family: &amp;quot;Times New Roman&amp;quot;, serif;&quot; lang=&quot;EN-US&quot;&gt;Select a product&lt;/span&gt;" style="ellipse;whiteSpace=wrap;html=1;" vertex="1" parent="1">
          <mxGeometry x="260" y="60" width="130" height="50" as="geometry" />
        </mxCell>
        <mxCell id="zyXUtbdKgDTWm1Kq7Wx1-25" value="&lt;span style=&quot;font-size: 12pt; line-height: 107%; font-family: &amp;quot;Times New Roman&amp;quot;, serif;&quot; lang=&quot;EN-US&quot;&gt;Enter quantity&lt;/span&gt;" style="ellipse;whiteSpace=wrap;html=1;" vertex="1" parent="1">
          <mxGeometry x="270" y="120" width="120" height="50" as="geometry" />
        </mxCell>
        <mxCell id="zyXUtbdKgDTWm1Kq7Wx1-26" value="&lt;p style=&quot;margin-bottom:0cm;margin-bottom:.0001pt;text-align:&lt;br/&gt;justify;line-height:115%;mso-layout-grid-align:none;text-autospace:none&quot; class=&quot;MsoNormal&quot;&gt;&lt;span style=&quot;font-size: 12pt; line-height: 115%;&quot; lang=&quot;EN-US&quot;&gt;&lt;font face=&quot;Helvetica&quot;&gt;Cart view&lt;/font&gt;&lt;/span&gt;&lt;/p&gt;" style="ellipse;whiteSpace=wrap;html=1;" vertex="1" parent="1">
          <mxGeometry x="310" y="180" width="100" height="40" as="geometry" />
        </mxCell>
        <mxCell id="zyXUtbdKgDTWm1Kq7Wx1-27" value="&lt;p style=&quot;margin-bottom:0cm;margin-bottom:.0001pt;line-height:&lt;br/&gt;115%;mso-layout-grid-align:none;text-autospace:none&quot; class=&quot;MsoNormal&quot;&gt;&lt;span style=&quot;font-size: 12pt; line-height: 115%; font-family: &amp;quot;Times New Roman&amp;quot;, serif;&quot; lang=&quot;EN-US&quot;&gt;Product purchase&lt;/span&gt;&lt;/p&gt;" style="ellipse;whiteSpace=wrap;html=1;" vertex="1" parent="1">
          <mxGeometry x="245" y="225" width="130" height="50" as="geometry" />
        </mxCell>
        <mxCell id="zyXUtbdKgDTWm1Kq7Wx1-28" value="" style="endArrow=classic;html=1;rounded=0;exitX=1;exitY=0.3333333333333333;exitDx=0;exitDy=0;exitPerimeter=0;entryX=0;entryY=0.5;entryDx=0;entryDy=0;" edge="1" parent="1" source="zyXUtbdKgDTWm1Kq7Wx1-2" target="zyXUtbdKgDTWm1Kq7Wx1-24">
          <mxGeometry width="50" height="50" relative="1" as="geometry">
            <mxPoint x="450" y="260" as="sourcePoint" />
            <mxPoint x="500" y="210" as="targetPoint" />
          </mxGeometry>
        </mxCell>
        <mxCell id="zyXUtbdKgDTWm1Kq7Wx1-29" value="" style="endArrow=classic;html=1;rounded=0;exitX=1;exitY=0.3333333333333333;exitDx=0;exitDy=0;exitPerimeter=0;entryX=0;entryY=0.5;entryDx=0;entryDy=0;" edge="1" parent="1" source="zyXUtbdKgDTWm1Kq7Wx1-2" target="zyXUtbdKgDTWm1Kq7Wx1-25">
          <mxGeometry width="50" height="50" relative="1" as="geometry">
            <mxPoint x="190" y="110" as="sourcePoint" />
            <mxPoint x="270" y="95" as="targetPoint" />
          </mxGeometry>
        </mxCell>
        <mxCell id="zyXUtbdKgDTWm1Kq7Wx1-30" value="" style="endArrow=classic;html=1;rounded=0;exitX=1;exitY=0.3333333333333333;exitDx=0;exitDy=0;exitPerimeter=0;entryX=0;entryY=0.5;entryDx=0;entryDy=0;" edge="1" parent="1" source="zyXUtbdKgDTWm1Kq7Wx1-2" target="zyXUtbdKgDTWm1Kq7Wx1-26">
          <mxGeometry width="50" height="50" relative="1" as="geometry">
            <mxPoint x="200" y="120" as="sourcePoint" />
            <mxPoint x="280" y="105" as="targetPoint" />
          </mxGeometry>
        </mxCell>
        <mxCell id="zyXUtbdKgDTWm1Kq7Wx1-31" value="" style="endArrow=classic;html=1;rounded=0;exitX=1;exitY=0.3333333333333333;exitDx=0;exitDy=0;exitPerimeter=0;entryX=0;entryY=0;entryDx=0;entryDy=0;" edge="1" parent="1" source="zyXUtbdKgDTWm1Kq7Wx1-2" target="zyXUtbdKgDTWm1Kq7Wx1-27">
          <mxGeometry width="50" height="50" relative="1" as="geometry">
            <mxPoint x="210" y="130" as="sourcePoint" />
            <mxPoint x="290" y="115" as="targetPoint" />
          </mxGeometry>
        </mxCell>
      </root>
    </mxGraphModel>
  </diagram>
</mxfile>
